<svg width="154" height="123" viewBox="0 0 154 123" fill="none" xmlns="http://www.w3.org/2000/svg">
<path d="M121.016 3.13161L102.004 29.298C94.4432 26.1716 85.9595 24.4173 77.0002 24.4173C68.0408 24.4173 59.5571 26.1716 51.9961 29.298L32.984 3.13161C28.6141 -2.88326 19.4271 0.345058 19.4271 7.90188V74.9872C19.4271 75.344 19.4515 75.6924 19.4921 76.0364C20.9108 102.177 46.114 123 76.9961 123C107.878 123 133.081 102.177 134.5 76.0364C134.541 75.6966 134.565 75.3483 134.565 74.9872V7.90188C134.565 0.349307 125.382 -2.88326 121.008 3.13161H121.016ZM54.2604 79.8594C49.6547 79.8594 45.9189 75.9557 45.9189 71.143C45.9189 66.3302 49.6547 62.4265 54.2604 62.4265C58.866 62.4265 62.6018 66.3302 62.6018 71.143C62.6018 75.9557 58.866 79.8594 54.2604 79.8594ZM99.7399 79.8594C95.1343 79.8594 91.3985 75.9557 91.3985 71.143C91.3985 66.3302 95.1343 62.4265 99.7399 62.4265C104.346 62.4265 108.081 66.3302 108.081 71.143C108.081 75.9557 104.346 79.8594 99.7399 79.8594Z" fill="white"/>
<path d="M149.96 67.658L126.412 71.3882C125.127 71.5918 124.243 72.8456 124.438 74.1885L124.586 75.2133C124.781 76.5563 125.981 77.4799 127.266 77.2763L150.814 73.5462C152.1 73.3426 152.983 72.0888 152.789 70.7458L152.64 69.7211C152.445 68.3781 151.245 67.4544 149.96 67.658Z" fill="white"/>
<path d="M151.646 82.9316H127.829C126.529 82.9316 125.476 84.0327 125.476 85.391V86.4275C125.476 87.7858 126.529 88.887 127.829 88.887H151.646C152.946 88.887 154 87.7858 154 86.4275V85.391C154 84.0327 152.946 82.9316 151.646 82.9316Z" fill="white"/>
<path d="M145.29 98.6889L122.105 92.9931C120.84 92.6822 119.573 93.5021 119.275 94.8244L119.048 95.8333C118.751 97.1556 119.535 98.4795 120.801 98.7904L143.986 104.486C145.251 104.797 146.518 103.977 146.816 102.655L147.043 101.646C147.34 100.324 146.555 98.9998 145.29 98.6889Z" fill="white"/>
<path d="M3.1803 73.5382L26.7283 77.2684C28.0135 77.472 29.2133 76.5483 29.4081 75.2053L29.5568 74.1806C29.7516 72.8376 28.8677 71.5838 27.5825 71.3803L4.03449 67.6501C2.74929 67.4465 1.54949 68.3702 1.35466 69.7131L1.206 70.7379C1.01117 72.0809 1.89509 73.3346 3.1803 73.5382Z" fill="white"/>
<path d="M2.35366 88.8861H26.1707C27.4706 88.8861 28.5243 87.785 28.5243 86.4267V85.3902C28.5243 84.0319 27.4706 82.9307 26.1707 82.9307H2.35366C1.05377 82.9307 0 84.0319 0 85.3902V86.4267C0 87.785 1.05377 88.8861 2.35366 88.8861Z" fill="white"/>
<path d="M10.0139 104.482L33.1988 98.7859C34.4641 98.4751 35.2488 97.1512 34.9513 95.8289L34.7243 94.8199C34.4268 93.4976 33.1598 92.6777 31.8944 92.9886L8.70954 98.6844C7.44416 98.9953 6.65952 100.319 6.95702 101.642L7.18402 102.65C7.48151 103.973 8.74847 104.793 10.0139 104.482Z" fill="white"/>
</svg>
