<svg width="131" height="131" viewBox="0 0 131 131" fill="none" xmlns="http://www.w3.org/2000/svg">
<circle cx="65.5" cy="65.5" r="65.5" fill="#FF6D40"/>
<path d="M96.6544 24.215L83.1977 42.723C77.8462 40.5116 71.8414 39.2708 65.5001 39.2708C59.1588 39.2708 53.154 40.5116 47.8025 42.723L34.3458 24.215C31.2528 19.9606 24.7504 22.2441 24.7504 27.5891V75.0397C24.7504 75.2921 24.7676 75.5385 24.7964 75.7819C25.8005 94.2718 43.6392 109 65.4972 109C87.3553 109 105.194 94.2718 106.198 75.7819C106.227 75.5415 106.244 75.2951 106.244 75.0397V27.5891C106.244 22.2471 99.7445 19.9606 96.6486 24.215H96.6544ZM49.4051 78.486C46.1452 78.486 43.501 75.7248 43.501 72.3206C43.501 68.9165 46.1452 66.1553 49.4051 66.1553C52.6649 66.1553 55.3091 68.9165 55.3091 72.3206C55.3091 75.7248 52.6649 78.486 49.4051 78.486ZM81.5951 78.486C78.3353 78.486 75.6911 75.7248 75.6911 72.3206C75.6911 68.9165 78.3353 66.1553 81.5951 66.1553C84.855 66.1553 87.4991 68.9165 87.4991 72.3206C87.4991 75.7248 84.855 78.486 81.5951 78.486Z" fill="white"/>
<path d="M117.141 69.8557L100.474 72.4941C99.5639 72.6381 98.9382 73.5249 99.0761 74.4748L99.1813 75.1996C99.3192 76.1496 100.168 76.8029 101.078 76.6589L117.745 74.0204C118.655 73.8764 119.28 72.9897 119.143 72.0397L119.037 71.3149C118.899 70.365 118.05 69.7117 117.141 69.8557Z" fill="white"/>
<path d="M118.334 80.6589H101.477C100.557 80.6589 99.8107 81.4378 99.8107 82.3985V83.1316C99.8107 84.0924 100.557 84.8713 101.477 84.8713H118.334C119.254 84.8713 120 84.0924 120 83.1316V82.3985C120 81.4378 119.254 80.6589 118.334 80.6589Z" fill="white"/>
<path d="M113.835 91.8043L97.4251 87.7756C96.5295 87.5557 95.6327 88.1356 95.4221 89.0709L95.2615 89.7846C95.0509 90.7198 95.6063 91.6563 96.5019 91.8761L112.912 95.9049C113.808 96.1248 114.704 95.5449 114.915 94.6096L115.076 93.8959C115.286 92.9607 114.731 92.0242 113.835 91.8043Z" fill="white"/>
<path d="M13.251 74.0148L29.9181 76.6533C30.8277 76.7973 31.6769 76.1439 31.8148 75.194L31.9201 74.4692C32.058 73.5193 31.4323 72.6325 30.5227 72.4885L13.8556 69.85C12.9459 69.706 12.0967 70.3594 11.9588 71.3093L11.8536 72.0341C11.7157 72.984 12.3413 73.8708 13.251 74.0148Z" fill="white"/>
<path d="M12.6659 84.8707H29.5234C30.4435 84.8707 31.1893 84.0918 31.1893 83.131V82.3979C31.1893 81.4372 30.4435 80.6583 29.5234 80.6583H12.6659C11.7458 80.6583 11 81.4372 11 82.3979V83.131C11 84.0918 11.7458 84.8707 12.6659 84.8707Z" fill="white"/>
<path d="M18.0877 95.9017L34.4978 91.873C35.3935 91.6531 35.9488 90.7167 35.7382 89.7814L35.5776 89.0677C35.367 88.1325 34.4703 87.5525 33.5746 87.7724L17.1645 91.8012C16.2689 92.0211 15.7136 92.9575 15.9241 93.8928L16.0848 94.6064C16.2954 95.5417 17.1921 96.1216 18.0877 95.9017Z" fill="white"/>
</svg>
